<svg width="586" height="160" viewBox="0 0 586 160" fill="none" xmlns="http://www.w3.org/2000/svg">
<style>
@media(prefers-color-scheme: dark) {
  #logo {
    fill: white;
  }
}
</style>
<path id="logo" fill-rule="evenodd" clip-rule="evenodd" d="M569.337 0.316325C565.516 1.47805 561.765 4.69172 558.334 9.74366C554.19 15.8446 548.235 29.9851 545.461 40.314C541.157 56.3333 538.109 75.7038 538.104 87.0659C538.101 93.3468 537.902 93.83 533.482 98.3078C527.593 104.272 523.463 104.653 522.252 99.3424C521.579 96.3958 522.529 91.7583 526.787 77.184C531.357 61.5391 531.928 58.7067 530.967 56.409C529.446 52.77 525.313 52.0623 521.697 54.8215L519.556 56.4545L517.546 55.0386C513.751 52.365 506.491 52.3986 501.11 55.1147C492.456 59.4817 485.724 69.6885 481.444 84.9294C478.5 95.4156 472.155 103.951 468.067 102.924C466.546 102.543 466.173 100.993 466.525 96.5318C466.732 93.9082 468.33 88.2345 472.742 74.4546C476.009 64.2542 479.199 54.4619 479.83 52.6939L480.978 49.4792L489.692 49.1617C499.329 48.8101 501.454 48.2517 502.759 45.728C503.681 43.9456 503.67 42.6103 502.714 40.5969C501.496 38.0296 500.139 37.6414 492.126 37.5672C488.193 37.5306 484.908 37.2972 484.826 37.0489C484.743 36.8006 485.567 33.9426 486.658 30.6973C487.748 27.4524 488.64 23.9648 488.64 22.9475C488.64 20.2724 486.988 18.5335 484.172 18.2462C479.749 17.7941 478.204 19.8762 474.349 31.489L472.276 37.7324L467.721 38.0677C462.137 38.4787 460.259 39.039 458.969 40.6795C457.866 42.0811 457.632 45.1998 458.506 46.8333C459.287 48.2933 461.976 49.2319 465.376 49.2319C467.017 49.2319 468.359 49.3872 468.359 49.5771C468.359 50.2705 460.333 75.2904 459.109 78.4111C457.407 82.7523 453.744 90.0194 451.882 92.7494C449.601 96.0931 444.611 101.139 442.534 102.201C440.092 103.449 438.88 103.384 437.421 101.925C436.398 100.902 436.207 100.238 436.207 97.6994C436.207 93.6529 437.067 90.4413 442.478 74.2825C445.014 66.7077 447.089 59.8027 447.089 58.9377C447.089 54.8027 442.095 52.3585 438.334 54.6523C436.398 55.8319 435.652 57.2295 434.228 62.3378C429.24 80.2301 426.376 86.1 418.721 94.1149C415.937 97.0293 411.016 101.161 410.328 101.161C409.621 101.161 411.88 92.4423 417.055 75.1964C419.937 65.594 420.618 62.6914 420.621 60C420.625 57.0885 420.468 56.5149 419.362 55.41C417.09 53.138 412.871 53.1533 410.751 55.4412L409.617 56.6647L407.097 54.9698C403.504 52.5519 401.589 52.048 396.944 52.2977C388.497 52.7512 381.147 58.3348 374.54 69.3185C372.712 72.3576 371.179 75.9828 369.157 82.0476C365.631 92.6223 364.662 94.8112 362.05 98.0976C358.619 102.415 355.428 103.76 353.876 101.545C351.961 98.8122 353.541 91.9957 361.535 68.5129C363.156 63.7488 364.483 59.2458 364.483 58.506C364.483 57.73 363.894 56.502 363.093 55.6053C361.981 54.361 361.215 54.004 359.26 53.818C354.703 53.3848 353.471 55.181 349.652 67.8195C343.804 87.1757 341.937 91.7173 337.525 97.3236C334.075 101.708 329.947 103.922 328.297 102.272C327.474 101.449 326.818 97.6228 327.134 95.4927C327.844 90.6989 331.281 78.0604 335.545 64.5633C336.447 61.7072 338.338 55.5871 339.748 50.9629C343.826 37.5761 347.565 25.768 349.976 18.6502C352.571 10.9914 352.567 9.44891 349.947 7.45088C347.698 5.73574 344.815 5.75354 342.745 7.49489C340.775 9.15168 340.358 9.97017 338.728 15.3545C337.988 17.8025 335.375 26.2596 332.923 34.1478C330.471 42.0361 327.975 50.1592 327.377 52.1993C326.78 54.2394 326.229 55.9748 326.155 56.0554C326.079 56.136 324.997 55.5129 323.748 54.6706C320.18 52.2631 317.497 51.5485 312.998 51.8091C305.932 52.2181 298.982 56.5351 292.723 64.4031C285.166 73.9031 281.035 85.4872 281.494 95.8913C281.849 103.92 284.589 109.116 290.21 112.42C292.342 113.673 292.912 113.772 297.978 113.772C303.284 113.772 303.552 113.719 307.129 111.947C309.155 110.943 312.073 108.996 313.613 107.619C315.153 106.244 316.54 105.117 316.696 105.117C316.852 105.117 317.525 106.195 318.193 107.511C320.59 112.241 324.305 114.323 329.588 113.899C333.852 113.557 336.576 112.19 340.644 108.354L344.156 105.04L344.946 106.933C345.869 109.146 348.278 111.795 350.385 112.914C351.276 113.387 353.153 113.714 355.084 113.734C359.218 113.777 362.171 112.386 366.282 108.461L369.318 105.562L370.398 107.309C375.581 115.695 387.758 116.328 396.264 108.654C397.972 107.113 398.119 107.064 398.119 108.043C398.119 110.751 396.862 112.245 392.467 114.761C374.099 125.277 367.373 131.894 364.726 142.058C363.8 145.614 363.798 147.325 364.719 150.425C366.902 157.776 375.988 161.908 383.857 159.129C393.444 155.743 398.754 146.743 405.508 122.427C406.604 118.483 407.827 115.033 408.226 114.761C408.625 114.489 410.595 113.22 412.602 111.94C414.61 110.661 418.279 107.824 420.757 105.635C423.234 103.446 425.387 101.655 425.54 101.655C425.694 101.655 425.829 102.156 425.841 102.768C425.914 106.489 428.975 111.082 432.547 112.829C434.883 113.972 435.667 114.102 439.297 113.947C442.743 113.8 443.942 113.507 446.762 112.118C448.609 111.208 451.526 109.15 453.244 107.544C454.961 105.937 456.477 104.623 456.612 104.623C456.748 104.623 456.985 105.235 457.139 105.983C457.294 106.731 458.089 108.39 458.907 109.669C460.923 112.823 463.628 114.194 467.869 114.21C472.066 114.227 474.876 112.875 479.278 108.723C482.364 105.813 482.65 105.651 482.962 106.634C483.53 108.424 486.71 111.555 489.284 112.859C491.09 113.774 492.524 114.099 494.808 114.112C500.609 114.146 504.112 112.703 508.821 108.345C510.445 106.842 511.887 105.612 512.025 105.612C512.163 105.612 512.404 106.113 512.56 106.725C512.717 107.336 513.541 108.679 514.393 109.706C519.939 116.4 531.492 114.981 540.392 106.515L541.937 105.045L543.008 106.778C545.533 110.862 550.311 113.623 556.524 114.589C559.74 115.089 560.946 115.051 564.661 114.332C567.059 113.868 570.216 112.889 571.678 112.159C575.199 110.397 580.588 105.348 582.297 102.207C584.91 97.4077 583.276 93.5174 578.647 93.5174C576.852 93.5174 576.377 93.8419 572.856 97.4774C567.939 102.555 564.75 104.322 560.575 104.282C555.427 104.234 552.321 102.529 550.998 99.0269C549.877 96.0625 550.291 94.7988 553.6 91.0783C561.701 81.9679 567.289 73.4412 573.731 60.3596C582.886 41.767 586.471 29.2897 585.951 17.8273C585.46 7.01368 581.128 0.733735 573.692 0.0561854C572.211 -0.0788299 570.252 0.0378871 569.337 0.316325ZM75.6305 1.78024C71.3928 3.7847 65.8779 9.3861 62.0226 15.6017C51.6384 32.3427 41.786 59.458 38.0345 81.6203L36.6955 89.5283L33.2784 91.8572C29.0774 94.7212 21.0432 98.7741 16.7764 100.182C15.0268 100.759 11.3288 101.413 8.55923 101.635C2.93109 102.085 1.29825 102.809 0.456349 105.224C-1.17452 109.902 1.61285 112.631 8.06409 112.673C15.7925 112.723 27.9016 108.046 35.6859 102.005C36.7187 101.203 37.6418 100.63 37.7367 100.73C37.8317 100.831 38.6039 102.388 39.4522 104.191C41.3086 108.135 44.7652 111.555 48.7873 113.426C51.257 114.575 52.368 114.763 57.5515 114.907C62.6513 115.049 64.1793 114.894 68.4007 113.81C73.2423 112.565 79.2845 109.839 83.2536 107.109L85.2811 105.714L88.0002 108.52C92.6015 113.268 98.8148 115.425 106.241 114.853C120.022 113.79 132.532 101.946 143.206 79.8567C144.773 76.6133 146.203 73.96 146.384 73.96C146.565 73.96 148.075 76.6865 149.739 80.0184C155 90.5535 155.636 97.4388 151.758 101.855C149.813 104.07 147.894 104.792 144.664 104.524C142.778 104.368 141.288 103.845 139.553 102.732C135.433 100.089 131.703 100.768 130.512 104.377C128.365 110.88 139.498 117.089 149.573 115.008C157.835 113.301 163.158 107.495 164.669 98.5392C165.93 91.0649 164.298 84.6613 158.499 74.3309C153.538 65.4926 152.578 62.5292 153.007 57.3704C153.388 52.7962 152.847 51.0351 150.722 49.9367C149.002 49.0475 147.742 49.047 145.616 49.9347C143.268 50.9159 141.705 53.5411 139.177 60.7498C132.229 80.5644 126.424 90.6292 117.195 98.8627C111.878 103.607 105.993 105.526 100.951 104.162C99.0329 103.644 95.3923 101.06 95.3923 100.218C95.3923 100.027 96.897 99.3874 98.7361 98.7954C106.235 96.3805 115.508 89.0214 120.129 81.8191C123.969 75.8349 125.253 71.8463 125.29 65.7997C125.315 61.5243 125.16 60.5525 124.15 58.6286C123.507 57.4046 122.506 55.8808 121.924 55.2423C118.058 50.996 109.288 50.6795 102.211 54.5307C96.8951 57.4234 90.7945 64.3907 87.0401 71.8566C83.4836 78.9289 81.9284 85.0105 81.9036 91.9408L81.8863 96.8157L80.3539 97.7736C71.9082 103.052 61.1397 105.795 55.3651 104.14C51.2897 102.971 48.3886 99.5551 47.7554 95.1792C47.5036 93.4393 47.6035 93.3137 52.4462 89.2667C70.7626 73.959 86.8076 50.0786 92.9932 28.9193C94.5049 23.7492 94.6459 22.6987 94.6478 16.5909C94.6498 10.6631 94.5227 9.63684 93.5107 7.44148C91.1764 2.37519 87.9201 0.298532 82.284 0.281717C79.4368 0.272815 78.2541 0.539383 75.6305 1.78024ZM77.4849 13.0053C72.8377 17.3194 67.4025 26.8847 61.1085 41.8259C56.119 53.6711 52.6198 64.1202 50.6274 73.1212C50.1574 75.2444 49.8789 77.0866 50.0085 77.2162C50.1376 77.3453 52.094 75.4976 54.356 73.1094C71.6911 54.8071 85.3598 28.675 84.417 15.6383C84.0188 10.1388 81.5737 9.21003 77.4849 13.0053ZM571 11.6121C569.887 12.0745 567.783 14.62 565.41 18.3752C559.303 28.0415 551.851 53.7211 549.997 71.4872C549.214 78.9956 549.156 79.8967 549.458 79.8779C550.266 79.8285 559.807 64.8868 563.829 57.3719C568.957 47.7903 573.872 34.1908 575.214 25.8723C576.021 20.8738 575.658 15.2338 574.389 13.0622C573.353 11.2882 572.578 10.9568 571 11.6121ZM444.651 32.2942C439.697 34.8199 439.407 41.8279 444.152 44.3719C446.391 45.5727 448.398 45.5113 451.029 44.1627C454.838 42.2097 456.042 37.6879 453.703 34.1186C451.964 31.4658 447.888 30.6438 444.651 32.2942ZM361.181 32.6439C359.439 33.4015 358.251 34.9455 357.562 37.3471C356.884 39.7096 357.487 41.6973 359.533 43.8476C361.173 45.5722 361.611 45.77 363.788 45.768C366.884 45.7656 369.237 44.3734 370.253 41.9411C372.783 35.8872 367.105 30.0677 361.181 32.6439ZM221.245 48.7196C220.028 49.3383 218.928 50.3768 218.467 51.3442C216.609 55.2404 216.922 57.6271 219.665 60.4699L221.202 62.0638L220.354 65.6627C217.133 79.3285 211.38 90.9957 204.363 98.0902C200.043 102.458 196.586 104.195 191.576 104.516C188.344 104.724 187.614 104.6 185.308 103.449C183.873 102.733 182.297 101.589 181.805 100.907C180.945 99.7118 180.945 99.6555 181.805 99.3538C187.428 97.382 190.809 95.7949 193.675 93.7825C205.42 85.5357 212.088 72.7365 210.186 62.092C209.418 57.7948 207.5 55.0252 203.949 53.0831C194.214 47.7596 181.693 54.9832 174.098 70.3052C163.434 91.8186 167.388 109.976 183.688 114.336C186.984 115.217 193.934 115.185 197.442 114.271C202.51 112.951 208.439 109.306 212.454 105.043C218.939 98.1544 225.584 85.0674 228.736 72.9709C229.481 70.1148 230.239 67.6054 230.422 67.3942C230.901 66.8413 238.841 69.0619 238.841 69.7483C238.841 70.0639 237.16 74.5347 235.107 79.6831C230.233 91.8988 229.266 95.6253 229.545 101.127C229.867 107.468 231.962 110.805 237.023 113.043C240.243 114.467 246.521 114.467 250.298 113.043C259.857 109.441 264.632 99.4309 257.858 97.195C255.35 96.3676 254.066 96.8686 251.364 99.7282C247.168 104.169 243.329 105.328 241.295 102.768C240.353 101.582 240.25 100.998 240.491 98.1935C240.824 94.3137 242.09 90.6045 246.715 79.9655C248.648 75.5164 250.476 70.9021 250.776 69.7117C252.034 64.7167 249.731 61.2152 244.106 59.5693C242.162 59.0005 238.716 57.9867 236.447 57.316L232.322 56.097L230.883 52.9233C230.091 51.178 228.895 49.3907 228.225 48.9515C226.239 47.6508 223.526 47.5603 221.245 48.7196ZM196.548 61.8719C196.276 61.9446 195.423 62.144 194.651 62.3146C191.404 63.0337 184.72 71.2429 182.434 77.3196C180.988 81.1613 178.764 89.7262 179.119 90.0817C179.658 90.6203 187.223 86.3092 190.54 83.5733C197.421 77.8992 201.912 68.0456 199.633 63.6257C199.034 62.4654 197.53 61.6103 196.548 61.8719ZM108.292 62.9466C103.472 65.32 97.0301 74.2444 94.2719 82.3676C92.9354 86.3033 92.0791 90.7751 92.6618 90.7751C93.4444 90.7751 101.238 86.5985 103.375 85.0333C109.533 80.5243 114.858 72.6732 115.508 67.1435C115.777 64.8541 115.673 64.3794 114.668 63.3106C113.291 61.8447 110.817 61.7033 108.292 62.9466ZM395.203 63.0955C389.109 65.6672 383.307 73.781 379.83 84.5931C375.904 96.7984 378.044 103.654 385.585 103.029C392.175 102.483 399.592 93.4255 404.123 80.3893C406.387 73.8779 405.451 66.5005 402.042 63.9758C400.582 62.8942 396.825 62.4105 395.203 63.0955ZM309.261 64.0025C303.58 66.6593 297.477 75.2864 293.919 85.6895C292.34 90.3087 292.107 96.3088 293.39 99.2954C294.933 102.884 298.886 104.04 303.095 102.131C306.066 100.783 311.31 95.2598 314.163 90.4734C317.051 85.6267 319.921 77.7825 320.304 73.6895C320.642 70.0653 319.577 66.2908 317.726 64.552C316.032 62.9605 312.044 62.7018 309.261 64.0025ZM506.509 64.1924C501.595 66.8309 496.874 73.1519 494.059 80.8661C490.431 90.8033 490.166 98.7751 493.358 101.966C495.146 103.754 499.197 103.634 501.798 101.717C507.922 97.2019 512.637 88.9848 515.875 77.1826C517.667 70.6519 516.361 65.3482 512.571 63.7646C510.283 62.8086 508.906 62.9056 506.509 64.1924ZM267.681 101.139C260.25 105.67 265.791 116.488 273.884 113.251C276.767 112.098 278.166 109.978 278.166 106.765C278.166 104.72 277.918 103.943 276.929 102.885C274.286 100.056 270.599 99.3602 267.681 101.139ZM388.963 128.202C383.162 132.111 377.973 137.134 376.417 140.348C374.865 143.554 375.083 147.403 376.893 148.75C380.169 151.186 385.515 147.229 389.117 139.703C391.239 135.269 394.364 126.249 394.077 125.387C393.982 125.104 391.681 126.37 388.963 128.202Z" fill="black"/>
</svg>
