<svg width="512" height="512" viewBox="0 0 512 512" fill="none" xmlns="http://www.w3.org/2000/svg">
    <style>
        @media (prefers-color-scheme: light) {
            rect {
                fill: #1E1E1E;
            }
            path {
                fill: white;
            }
        }
    </style>
    <rect width="512" height="512" rx="120" fill="white" />
    <path fill-rule="evenodd" clip-rule="evenodd"
        d="M168.929 109.308C146.539 115.637 127.856 144.095 114.074 192.86C101.567 237.116 93.014 294.604 93.004 334.487L93 350.474L79.75 363.557C72.463 370.753 63.254 379.202 59.286 382.334C50.475 389.288 48.648 393.348 51.563 399.491C54.014 404.657 60.48 407.657 65.554 405.982C70.082 404.488 77.527 398.674 87.709 388.682C93.37 383.126 96.076 381.071 96.425 382.062C103.363 401.764 110.137 410.519 123.5 417.055C144.999 427.57 176.059 420.892 206.148 399.286C210.963 395.829 215.19 393 215.54 393C215.891 393 218.466 395.002 221.262 397.448C227.707 403.086 237.014 407.684 245.713 409.527C281.172 417.041 318.761 392.025 351.943 338.829C364.912 318.038 378.426 290.016 386.063 268.082C389.63 257.837 390.571 255.982 391.443 257.478C392.024 258.476 397.385 266.764 403.356 275.896C420.314 301.833 425.835 314.271 428.044 331.518C431.788 360.741 414.95 385.724 392.861 383.721C379.507 382.51 370.024 371.5 370.006 357.184C369.999 351.83 368.773 349.451 365.02 347.51C357.707 343.729 349.192 347.88 346.903 356.341C344.281 366.037 349.871 381.513 359.848 392.178C379.568 413.259 410.588 413.25 431.779 392.156C444.931 379.064 450.914 364.604 451.748 343.893C452.826 317.106 446.121 298.271 422.929 262.94C406.503 237.918 402.786 229.87 400.469 214.313C399.363 206.888 393.852 203.055 386.315 204.469C382.107 205.258 376.359 210.445 375.649 214.091C368.714 249.743 363.846 264.97 350.587 292.5C327.301 340.847 299.5 374.199 274.207 384.129C265.735 387.455 250.327 387.459 244 384.137C241.525 382.838 238.479 380.839 237.231 379.695L234.963 377.616L250.316 362.058C266.422 345.737 273.463 337.435 281.748 325C307.213 286.778 308.457 247.511 284.59 235.259C277.306 231.519 264.871 230.933 255.192 233.873C232.472 240.774 211.116 270.03 201.334 307.654C198.735 317.65 198.513 319.95 198.507 337C198.501 353.455 198.761 356.412 200.86 363.751L203.22 372.002L200.86 374.015C196.236 377.959 182.388 386.839 175.5 390.276C160.043 397.989 144.89 400.264 135.813 396.235C130.613 393.927 124.547 387.442 121.975 381.442C120.189 377.275 117 363.873 117 360.533C117 359.68 120.008 355.048 123.684 350.241C147.108 319.61 172.683 273.602 188.301 234C202.067 199.096 208.013 174.211 207.985 151.619C207.958 128.976 202.534 116.277 190.438 110.538C185.569 108.227 174.909 107.617 168.929 109.308ZM172.5 132.569C153.022 142.679 132.075 200.878 121.578 274.047C119.47 288.739 117.048 311.51 117.01 316.991C116.996 318.991 126.456 304.753 135.141 289.701C154.876 255.498 174.842 207.145 180.882 178.928C185.972 155.147 185.326 133.874 179.446 131.618C177.03 130.69 175.794 130.86 172.5 132.569ZM261.698 256.444C244.83 262.46 227.521 291.6 222.433 322.543C220.832 332.276 220.881 354.216 222.507 355.839C223.651 356.981 248.171 331.004 256.807 319.5C277.299 292.201 284.958 263.823 273.689 256.952C269.976 254.688 266.976 254.561 261.698 256.444Z"
        fill="black" />
</svg>