<svg width="560" height="560" viewBox="0 0 560 560" fill="none" xmlns="http://www.w3.org/2000/svg">
<g filter="url(#filter0_d_22_2)">
<rect x="24" y="16" width="512" height="512" rx="120" fill="white"/>
<path fill-rule="evenodd" clip-rule="evenodd" d="M192.929 125.308C170.539 131.637 151.856 160.095 138.074 208.86C125.567 253.116 117.014 310.604 117.004 350.487L117 366.474L103.75 379.557C96.463 386.753 87.254 395.202 83.286 398.334C74.475 405.288 72.648 409.348 75.563 415.491C78.014 420.657 84.48 423.657 89.554 421.982C94.082 420.488 101.527 414.674 111.709 404.682C117.37 399.126 120.076 397.071 120.425 398.062C127.363 417.764 134.137 426.519 147.5 433.055C168.999 443.57 200.059 436.892 230.148 415.286C234.963 411.829 239.19 409 239.54 409C239.891 409 242.466 411.002 245.262 413.448C251.707 419.086 261.014 423.684 269.713 425.527C305.172 433.041 342.761 408.025 375.943 354.829C388.912 334.038 402.426 306.016 410.063 284.082C413.63 273.837 414.571 271.982 415.443 273.478C416.024 274.476 421.385 282.764 427.356 291.896C444.314 317.833 449.835 330.271 452.044 347.518C455.788 376.741 438.95 401.724 416.861 399.721C403.507 398.51 394.024 387.5 394.006 373.184C393.999 367.83 392.773 365.451 389.02 363.51C381.707 359.729 373.192 363.88 370.903 372.341C368.281 382.037 373.871 397.513 383.848 408.178C403.568 429.259 434.588 429.25 455.779 408.156C468.931 395.064 474.914 380.604 475.748 359.893C476.826 333.106 470.121 314.271 446.929 278.94C430.503 253.918 426.786 245.87 424.469 230.313C423.363 222.888 417.852 219.055 410.315 220.469C406.107 221.258 400.359 226.445 399.649 230.091C392.714 265.743 387.846 280.97 374.587 308.5C351.301 356.847 323.5 390.199 298.207 400.129C289.735 403.455 274.327 403.459 268 400.137C265.525 398.838 262.479 396.839 261.231 395.695L258.963 393.616L274.316 378.058C290.422 361.737 297.463 353.435 305.748 341C331.213 302.778 332.457 263.511 308.59 251.259C301.306 247.519 288.871 246.933 279.192 249.873C256.472 256.774 235.116 286.03 225.334 323.654C222.735 333.65 222.513 335.95 222.507 353C222.501 369.455 222.761 372.412 224.86 379.751L227.22 388.002L224.86 390.015C220.236 393.959 206.388 402.839 199.5 406.276C184.043 413.989 168.89 416.264 159.813 412.235C154.613 409.927 148.547 403.442 145.975 397.442C144.189 393.275 141 379.873 141 376.533C141 375.68 144.008 371.048 147.684 366.241C171.108 335.61 196.683 289.602 212.301 250C226.067 215.096 232.013 190.211 231.985 167.619C231.958 144.976 226.534 132.277 214.438 126.538C209.569 124.227 198.909 123.617 192.929 125.308ZM196.5 148.569C177.022 158.679 156.075 216.878 145.578 290.047C143.47 304.739 141.048 327.51 141.01 332.991C140.996 334.991 150.456 320.753 159.141 305.701C178.876 271.498 198.842 223.145 204.882 194.928C209.972 171.147 209.326 149.874 203.446 147.618C201.03 146.69 199.794 146.86 196.5 148.569ZM285.698 272.444C268.83 278.46 251.521 307.6 246.433 338.543C244.832 348.276 244.881 370.216 246.507 371.839C247.651 372.981 272.171 347.004 280.807 335.5C301.299 308.201 308.958 279.823 297.689 272.952C293.976 270.688 290.976 270.561 285.698 272.444Z" fill="black"/>
</g>
<defs>
<filter id="filter0_d_22_2" x="0" y="0" width="560" height="560" filterUnits="userSpaceOnUse" color-interpolation-filters="sRGB">
<feFlood flood-opacity="0" result="BackgroundImageFix"/>
<feColorMatrix in="SourceAlpha" type="matrix" values="0 0 0 0 0 0 0 0 0 0 0 0 0 0 0 0 0 0 127 0" result="hardAlpha"/>
<feOffset dy="8"/>
<feGaussianBlur stdDeviation="12"/>
<feComposite in2="hardAlpha" operator="out"/>
<feColorMatrix type="matrix" values="0 0 0 0 0 0 0 0 0 0 0 0 0 0 0 0 0 0 0.16 0"/>
<feBlend mode="normal" in2="BackgroundImageFix" result="effect1_dropShadow_22_2"/>
<feBlend mode="normal" in="SourceGraphic" in2="effect1_dropShadow_22_2" result="shape"/>
</filter>
</defs>
</svg>
