<svg width="140" height="140" viewBox="0 0 140 140" fill="none" xmlns="http://www.w3.org/2000/svg">
    <style>
        @media (prefers-color-scheme: light) {
        rect {
        fill: hsl(0, 0%, 95%);
        }
        path {
        fill: white;
        }
        }
    </style>
    <rect x="6" y="4" width="128" height="128" rx="30" fill="white" />
    <path fill-rule="evenodd" clip-rule="evenodd"
        d="M48.2322 31.327C42.6347 32.9092 37.964 40.0237 34.5185 52.215C31.3917 63.279 29.2535 77.651 29.251 87.6217L29.25 91.6185L25.9375 94.8892C24.1157 96.6882 21.8135 98.8005 20.8215 99.5835C18.6187 101.322 18.162 102.337 18.8907 103.873C19.5035 105.164 21.12 105.914 22.3885 105.495C23.5205 105.122 25.3817 103.668 27.9272 101.17C29.3425 99.7815 30.019 99.2677 30.1062 99.5155C31.8407 104.441 33.5342 106.63 36.875 108.264C42.2497 110.892 50.0147 109.223 57.537 103.821C58.7407 102.957 59.7975 102.25 59.885 102.25C59.9727 102.25 60.6165 102.75 61.3155 103.362C62.9267 104.771 65.2535 105.921 67.4282 106.382C76.293 108.26 85.6902 102.006 93.9857 88.7072C97.228 83.5095 100.606 76.504 102.516 71.0205C103.407 68.4592 103.643 67.9955 103.861 68.3695C104.006 68.619 105.346 70.691 106.839 72.974C111.078 79.4582 112.459 82.5677 113.011 86.8795C113.947 94.1852 109.737 100.431 104.215 99.9302C100.877 99.6275 98.506 96.875 98.5015 93.296C98.4997 91.9575 98.1932 91.3627 97.255 90.8775C95.4267 89.9322 93.298 90.97 92.7257 93.0852C92.0702 95.5092 93.4677 99.3782 95.962 102.044C100.892 107.315 108.647 107.312 113.945 102.039C117.233 98.766 118.728 95.151 118.937 89.9732C119.206 83.2765 117.53 78.5677 111.732 69.735C107.626 63.4795 106.696 61.4675 106.117 57.5782C105.841 55.722 104.463 54.7637 102.579 55.1172C101.527 55.3145 100.09 56.6112 99.9122 57.5227C98.1785 66.4357 96.9615 70.2425 93.6467 77.125C87.8252 89.2117 80.875 97.5497 74.5517 100.032C72.4337 100.864 68.5817 100.865 67 100.034C66.3812 99.7095 65.6197 99.2097 65.3077 98.9237L64.7407 98.404L68.579 94.5145C72.6055 90.4342 74.3657 88.3587 76.437 85.25C82.8032 75.6945 83.1142 65.8777 77.1475 62.8147C75.3265 61.8797 72.2177 61.7332 69.798 62.4682C64.118 64.1935 58.779 71.5075 56.3335 80.9135C55.6837 83.4125 55.6282 83.9875 55.6267 88.25C55.6252 92.3637 55.6902 93.103 56.215 94.9377L56.805 97.0005L56.215 97.5037C55.059 98.4897 51.597 100.71 49.875 101.569C46.0107 103.497 42.2225 104.066 39.9532 103.059C38.6532 102.482 37.1367 100.86 36.4937 99.3605C36.0472 98.3187 35.25 94.9682 35.25 94.1332C35.25 93.92 36.002 92.762 36.921 91.5602C42.777 83.9025 49.1707 72.4005 53.0752 62.5C56.5167 53.774 58.0032 47.5527 57.9962 41.9047C57.9895 36.244 56.6335 33.0692 53.6095 31.6345C52.3922 31.0567 49.7272 30.9042 48.2322 31.327ZM49.125 37.1422C44.2555 39.6697 39.0187 54.2195 36.3945 72.5117C35.8675 76.1847 35.262 81.8775 35.2525 83.2477C35.249 83.7477 37.614 80.1882 39.7852 76.4252C44.719 67.8745 49.7105 55.7862 51.2205 48.732C52.493 42.7867 52.3315 37.4685 50.8615 36.9045C50.2575 36.6725 49.9485 36.715 49.125 37.1422ZM71.4245 68.111C67.2075 69.615 62.8802 76.9 61.6082 84.6357C61.208 87.069 61.2202 92.554 61.6267 92.9597C61.9127 93.2452 68.0427 86.751 70.2017 83.875C75.3247 77.0502 77.2395 69.9557 74.4222 68.238C73.494 67.672 72.744 67.6402 71.4245 68.111Z"
        fill="black" />
</svg>